<?xml version="1.0" encoding="iso-8859-1"?>
<!-- Uploaded to: SVG Repo, www.svgrepo.com, Generator: SVG Repo Mixer Tools -->
<svg fill="#000000" height="800px" width="800px" version="1.1" id="Layer_1" xmlns="http://www.w3.org/2000/svg" xmlns:xlink="http://www.w3.org/1999/xlink" 
	 viewBox="0 0 511.999 511.999" xml:space="preserve">
<g>
	<g>
		<path d="M495.303,280.82H278.379v-33.391h83.548c17.028,0,32.646-8.362,41.779-22.37c37.431-57.406,37.431-131.594,0-189
			c-9.133-14.007-24.75-22.369-41.778-22.369H111.659c-14.139,0-21.865,16.538-12.826,27.384c43.208,51.852,43.208,127.12,0,178.972
			c-9.053,10.864-1.289,27.384,12.826,27.384h133.328v33.391H16.696C7.475,280.821,0,288.296,0,297.517
			c0,59.941,35.286,111.79,86.172,135.886l-36.405,36.405c-6.52,6.519-6.52,17.091,0,23.611s17.091,6.52,23.611,0l48.368-48.368
			c9.236,1.782,18.766,2.726,28.514,2.726h21.712l-22.032,22.032c-6.52,6.519-6.52,17.091,0,23.611s17.091,6.52,23.611,0
			l45.643-45.643h52.952l-22.032,22.032c-6.52,6.519-6.52,17.091,0,23.611c6.52,6.52,17.091,6.52,23.611,0l45.643-45.643h42.371
			c82.853,0,150.26-67.407,150.26-150.261C511.999,288.295,504.524,280.82,495.303,280.82z M143.196,214.036
			c28.583-51.879,28.583-115.076,0-166.955h218.732c5.615,0,10.907,2.765,13.807,7.215c30.208,46.328,30.208,106.198,0,152.526
			c-2.901,4.45-8.192,7.215-13.807,7.215H143.196z M477.42,314.211c-8.126,56.562-56.905,100.174-115.68,100.174h-8.98
			l37.836-37.836c6.52-6.519,6.52-17.091,0-23.611c-6.519-6.519-17.091-6.519-23.611,0l-61.447,61.447h-52.952l37.836-37.836
			c6.52-6.519,6.52-17.091,0-23.611c-6.519-6.519-17.091-6.519-23.611,0l-61.447,61.447h-52.952l37.836-37.836
			c6.52-6.519,6.52-17.091,0-23.611c-6.519-6.519-17.091-6.519-23.611,0l-54.912,54.912c-40.495-14.185-70.884-50.067-77.144-93.639
			L477.42,314.211L477.42,314.211z"/>
	</g>
</g>
</svg>